<mxfile host="Electron" modified="2023-09-05T22:33:08.143Z" agent="Mozilla/5.0 (Windows NT 10.0; Win64; x64) AppleWebKit/537.36 (KHTML, like Gecko) draw.io/21.6.5 Chrome/114.0.5735.243 Electron/25.3.1 Safari/537.36" etag="E678EBRnlAbsFt8JhhbE" version="21.6.5" type="device">
  <diagram name="PÃ¡gina-1" id="5zDPb_y0V6JPfCEl94ai">
    <mxGraphModel dx="880" dy="532" grid="1" gridSize="10" guides="1" tooltips="1" connect="1" arrows="1" fold="1" page="1" pageScale="1" pageWidth="827" pageHeight="1169" math="0" shadow="0">
      <root>
        <mxCell id="0" />
        <mxCell id="1" parent="0" />
        <mxCell id="VkzXmlNw2ctTbsipiXHE-8" value="Application" style="rounded=1;arcSize=10;whiteSpace=wrap;html=1;align=center;fillColor=#ffe6cc;strokeColor=#d79b00;" parent="1" vertex="1">
          <mxGeometry x="140" y="190" width="100" height="40" as="geometry" />
        </mxCell>
        <mxCell id="VkzXmlNw2ctTbsipiXHE-9" value="User" style="rounded=1;arcSize=10;whiteSpace=wrap;html=1;align=center;" parent="1" vertex="1">
          <mxGeometry x="370" y="190" width="100" height="40" as="geometry" />
        </mxCell>
        <mxCell id="VkzXmlNw2ctTbsipiXHE-10" value="" style="edgeStyle=entityRelationEdgeStyle;fontSize=12;html=1;endArrow=ERoneToMany;startArrow=ERzeroToMany;rounded=0;" parent="1" source="VkzXmlNw2ctTbsipiXHE-8" target="VkzXmlNw2ctTbsipiXHE-9" edge="1">
          <mxGeometry width="100" height="100" relative="1" as="geometry">
            <mxPoint x="360" y="438" as="sourcePoint" />
            <mxPoint x="460" y="338" as="targetPoint" />
            <Array as="points">
              <mxPoint x="380" y="208" />
            </Array>
          </mxGeometry>
        </mxCell>
        <mxCell id="VkzXmlNw2ctTbsipiXHE-11" value="Rol" style="rounded=1;arcSize=10;whiteSpace=wrap;html=1;align=center;" parent="1" vertex="1">
          <mxGeometry x="570" y="190" width="100" height="40" as="geometry" />
        </mxCell>
        <mxCell id="VkzXmlNw2ctTbsipiXHE-12" value="" style="fontSize=12;html=1;endArrow=ERoneToMany;startArrow=ERzeroToMany;rounded=0;" parent="1" source="VkzXmlNw2ctTbsipiXHE-11" target="VkzXmlNw2ctTbsipiXHE-9" edge="1">
          <mxGeometry width="100" height="100" relative="1" as="geometry">
            <mxPoint x="413.7628865979382" y="308" as="sourcePoint" />
            <mxPoint x="420" y="230" as="targetPoint" />
          </mxGeometry>
        </mxCell>
        <mxCell id="VkzXmlNw2ctTbsipiXHE-13" value="Profile" style="rounded=1;arcSize=10;whiteSpace=wrap;html=1;align=center;fillColor=#ffe6cc;strokeColor=#d79b00;" parent="1" vertex="1">
          <mxGeometry x="140" y="308" width="100" height="40" as="geometry" />
        </mxCell>
        <mxCell id="VkzXmlNw2ctTbsipiXHE-15" value="UserGroup" style="rounded=1;arcSize=10;whiteSpace=wrap;html=1;align=center;fillColor=#ffe6cc;strokeColor=#d79b00;" parent="1" vertex="1">
          <mxGeometry x="370" y="308" width="100" height="40" as="geometry" />
        </mxCell>
        <mxCell id="VkzXmlNw2ctTbsipiXHE-16" value="" style="fontSize=12;html=1;endArrow=ERoneToMany;startArrow=ERzeroToMany;rounded=0;exitX=0.5;exitY=0;exitDx=0;exitDy=0;entryX=0.5;entryY=1;entryDx=0;entryDy=0;" parent="1" source="VkzXmlNw2ctTbsipiXHE-15" target="VkzXmlNw2ctTbsipiXHE-9" edge="1">
          <mxGeometry width="100" height="100" relative="1" as="geometry">
            <mxPoint x="580" y="220" as="sourcePoint" />
            <mxPoint x="480" y="220" as="targetPoint" />
          </mxGeometry>
        </mxCell>
        <mxCell id="VkzXmlNw2ctTbsipiXHE-17" value="" style="edgeStyle=entityRelationEdgeStyle;fontSize=12;html=1;endArrow=ERoneToMany;startArrow=ERzeroToMany;rounded=0;" parent="1" source="VkzXmlNw2ctTbsipiXHE-13" target="VkzXmlNw2ctTbsipiXHE-15" edge="1">
          <mxGeometry width="100" height="100" relative="1" as="geometry">
            <mxPoint x="240" y="378" as="sourcePoint" />
            <mxPoint x="370" y="378" as="targetPoint" />
            <Array as="points">
              <mxPoint x="380" y="376" />
            </Array>
          </mxGeometry>
        </mxCell>
        <mxCell id="VkzXmlNw2ctTbsipiXHE-18" value="Environment" style="rounded=1;arcSize=10;whiteSpace=wrap;html=1;align=center;" parent="1" vertex="1">
          <mxGeometry x="138" y="80" width="100" height="40" as="geometry" />
        </mxCell>
        <mxCell id="VkzXmlNw2ctTbsipiXHE-20" value="" style="fontSize=12;html=1;endArrow=ERoneToMany;startArrow=ERzeroToMany;rounded=0;" parent="1" source="VkzXmlNw2ctTbsipiXHE-18" target="VkzXmlNw2ctTbsipiXHE-8" edge="1">
          <mxGeometry width="100" height="100" relative="1" as="geometry">
            <mxPoint x="200" y="240" as="sourcePoint" />
            <mxPoint x="200" y="318" as="targetPoint" />
          </mxGeometry>
        </mxCell>
        <mxCell id="VkzXmlNw2ctTbsipiXHE-21" value="Configuration" style="rounded=1;arcSize=10;whiteSpace=wrap;html=1;align=center;" parent="1" vertex="1">
          <mxGeometry x="314" y="80" width="100" height="40" as="geometry" />
        </mxCell>
        <mxCell id="VkzXmlNw2ctTbsipiXHE-22" value="" style="edgeStyle=orthogonalEdgeStyle;fontSize=12;html=1;endArrow=ERoneToMany;startArrow=ERmandOne;rounded=0;exitX=0.65;exitY=0.025;exitDx=0;exitDy=0;exitPerimeter=0;" parent="1" source="VkzXmlNw2ctTbsipiXHE-8" target="VkzXmlNw2ctTbsipiXHE-21" edge="1">
          <mxGeometry width="100" height="100" relative="1" as="geometry">
            <mxPoint x="238" y="170" as="sourcePoint" />
            <mxPoint x="337" y="80" as="targetPoint" />
          </mxGeometry>
        </mxCell>
        <mxCell id="VkzXmlNw2ctTbsipiXHE-23" value="Environment" style="rounded=1;arcSize=10;whiteSpace=wrap;html=1;align=center;fillColor=#ffe6cc;strokeColor=#d79b00;" parent="1" vertex="1">
          <mxGeometry x="138" y="80" width="100" height="40" as="geometry" />
        </mxCell>
        <mxCell id="VkzXmlNw2ctTbsipiXHE-24" value="Configuration" style="rounded=1;arcSize=10;whiteSpace=wrap;html=1;align=center;fillColor=#ffe6cc;strokeColor=#d79b00;" parent="1" vertex="1">
          <mxGeometry x="314" y="80" width="100" height="40" as="geometry" />
        </mxCell>
        <mxCell id="VkzXmlNw2ctTbsipiXHE-25" value="User" style="rounded=1;arcSize=10;whiteSpace=wrap;html=1;align=center;fillColor=#ffe6cc;strokeColor=#d79b00;" parent="1" vertex="1">
          <mxGeometry x="370" y="190" width="100" height="40" as="geometry" />
        </mxCell>
        <mxCell id="VkzXmlNw2ctTbsipiXHE-26" value="Rol" style="rounded=1;arcSize=10;whiteSpace=wrap;html=1;align=center;fillColor=#ffe6cc;strokeColor=#d79b00;" parent="1" vertex="1">
          <mxGeometry x="570" y="190" width="100" height="40" as="geometry" />
        </mxCell>
        <mxCell id="VkzXmlNw2ctTbsipiXHE-27" value="Action" style="rounded=1;arcSize=10;whiteSpace=wrap;html=1;align=center;fillColor=#ffe6cc;strokeColor=#d79b00;" parent="1" vertex="1">
          <mxGeometry x="140" y="410" width="100" height="40" as="geometry" />
        </mxCell>
        <mxCell id="VkzXmlNw2ctTbsipiXHE-29" value="" style="fontSize=12;html=1;endArrow=ERoneToMany;startArrow=ERzeroToMany;rounded=0;exitX=0.5;exitY=1;exitDx=0;exitDy=0;" parent="1" source="VkzXmlNw2ctTbsipiXHE-13" target="VkzXmlNw2ctTbsipiXHE-27" edge="1">
          <mxGeometry width="100" height="100" relative="1" as="geometry">
            <mxPoint x="270" y="430" as="sourcePoint" />
            <mxPoint x="400" y="430" as="targetPoint" />
          </mxGeometry>
        </mxCell>
        <mxCell id="ZqqcnughIRqHvxhZ9t1k-1" value="Text" style="text;html=1;strokeColor=none;fillColor=none;align=center;verticalAlign=middle;whiteSpace=wrap;rounded=0;" vertex="1" parent="1">
          <mxGeometry x="280" y="210" width="60" height="30" as="geometry" />
        </mxCell>
        <mxCell id="ZqqcnughIRqHvxhZ9t1k-2" value="&lt;font style=&quot;font-size: 14px;&quot;&gt;&lt;b&gt;Application Configuration Manager&lt;/b&gt;&lt;/font&gt;" style="text;html=1;strokeColor=none;fillColor=none;align=center;verticalAlign=middle;whiteSpace=wrap;rounded=0;" vertex="1" parent="1">
          <mxGeometry x="64" y="20" width="350" height="30" as="geometry" />
        </mxCell>
      </root>
    </mxGraphModel>
  </diagram>
</mxfile>
